<svg id="Group_1833" data-name="Group 1833" xmlns="http://www.w3.org/2000/svg" xmlns:xlink="http://www.w3.org/1999/xlink" width="180.337" height="180.322" viewBox="0 0 180.337 180.322">
  <defs>
    <clipPath id="clip-path">
      <rect id="Rectangle_1856" data-name="Rectangle 1856" width="180.337" height="180.322" fill="none"/>
    </clipPath>
  </defs>
  <g id="Group_1832" data-name="Group 1832" clip-path="url(#clip-path)">
    <path id="Path_4108" data-name="Path 4108" d="M110.6,180.322H69.74a3.24,3.24,0,0,1-.5-2.349c-.012-4.752-.03-9.5.01-14.255a6.379,6.379,0,0,0-1.1-3.789,9.119,9.119,0,0,1,.771-11.664,2.237,2.237,0,0,0,.3-2.96A22.749,22.749,0,0,1,66.4,134.169q.11-5.278,0-10.559c-.065-3.153.778-5.766,3.568-7.115-.456.422-1.277.222-2.032.224-5.925.018-11.851.009-17.777.01-3.08,0-3.08,0-3.168,3.021a15.006,15.006,0,0,1-29.637,2.809,14.566,14.566,0,0,1-.238-3.853c.052-1.43-.56-2-1.981-1.987q-4.576.053-9.152,0C2.614,116.687.788,115.228,0,112V56.7C.812,53.39,2.6,52,6.137,51.968c2.987-.024,5.974-.03,8.96,0,1.391.016,2.077-.5,2-1.951A36.23,36.23,0,0,1,19.636,34.2a2.294,2.294,0,0,0-.454-2.284c-2.931-4.431-2.94-7.882,0-12.161a4.7,4.7,0,0,0,.734-2.826c0-4.8-.008-9.6.005-14.405A3.507,3.507,0,0,1,20.429,0H60.934a3.23,3.23,0,0,1,.5,2.35c.013,4.753.021,9.505,0,14.257A5.649,5.649,0,0,0,62.557,20.2a9.1,9.1,0,0,1-.34,11.681,2.6,2.6,0,0,0-.4,3.421A24.49,24.49,0,0,1,64.593,47c.07,4.974.033,4.975,5.075,4.975,1.174,0,2.348.023,3.521-.008,1.768-.045,2.039-.268,2.017-2.078A15.3,15.3,0,0,1,76.289,43.7,15.132,15.132,0,0,1,93.4,34.773c6.515,1.239,11.656,7.565,11.715,14.413.023,2.719.081,2.781,2.742,2.789q2.641.008,5.281,0c2.591-.006,2.635-.009,2.588-2.686-.068-3.843.037-7.726,1.649-11.228,1.356-2.947,1.821-5.182-.4-8.161-2.177-2.914-1.452-6.547.717-9.554a6.247,6.247,0,0,0,1.232-3.915c-.037-4.694-.02-9.388-.008-14.082A3.229,3.229,0,0,1,119.4,0h40.505a3.516,3.516,0,0,1,.508,2.525c.014,4.754.023,9.509-.006,14.263a5.424,5.424,0,0,0,1.082,3.43,9.153,9.153,0,0,1,.178,10.861,4.313,4.313,0,0,0-.495,4.533,34.082,34.082,0,0,1,2.085,13.655c-.106,2.575.089,2.683,2.641,2.693,2.817.011,5.636-.021,8.453.01,3.379.037,5.185,1.483,5.981,4.732V112c-.853,3.33-2.636,4.707-6.179,4.732-2.874.021-5.748-.011-8.621.011-2.121.016-2.434.194-2.268,2.327.508,6.538-4.972,13.974-13,15.107-8.276,1.168-16.692-5.667-16.916-14.043-.094-3.509.318-3.4-3.5-3.4-4.633.007-9.266-.012-13.9.008-1.854.008-2.009.162-2.018,2.015-.022,4.457-.035,8.914,0,13.371a36.412,36.412,0,0,1-2.43,13.243,3.249,3.249,0,0,0,.408,3.413c2.663,3.734,2.709,7.47.195,11.3a5.977,5.977,0,0,0-1.009,3.467c.026,4.75.018,9.5,0,14.251a3.508,3.508,0,0,1-.5,2.523"/>
    <path id="Path_4109" data-name="Path 4109" d="M136.266,104.141c1.585,0,3.17.017,4.755,0a5.724,5.724,0,0,0,5.971-5.984,32.94,32.94,0,0,1,.1-3.691,8.612,8.612,0,0,1,9.143-7.687,8.7,8.7,0,0,1,8.249,8.484c.051,1,0,2,.023,2.993a5.687,5.687,0,0,0,5.887,5.881c3.346.034,6.693.058,10.037-.02,1.1-.026,1.486.319,1.711,1.377a5.256,5.256,0,0,0,4.349,4.3c.99.2,1.388.544,1.3,1.6-.112,1.341.428,2.992-.18,3.969-.7,1.12-2.48.325-3.781.45a14.568,14.568,0,0,0,.658,29.1c3.279.162,3.279.162,3.279,3.492,0,2.348-.027,4.7.014,7.043.015.82-.223,1.144-1.087,1.127-2.406-.047-4.814-.037-7.22,0a1.343,1.343,0,0,1-1.34-.849c-2.368-4.141-5.517-5.609-10.125-4.671-.743.151-.968.012-1.274-.611-2.712-5.535-8.017-7.108-13.137-3.882a1.137,1.137,0,0,1-1.494.02c-6.387-3.994-13.537-.219-13.819,7.26-.1,2.721-.1,2.721-2.826,2.721-3.464,0-6.928-.047-10.39.026-1.119.024-1.385-.343-1.361-1.4.067-2.875.1-5.755-.009-8.627-.048-1.315.3-1.7,1.639-1.65,4.96.2,9.287-1.345,12.471-5.28,3.717-4.594,4.5-9.764,2.084-15.163-2.478-5.543-7-8.335-13.025-8.652-3.134-.165-3.058-.117-3.169-3.277-.058-1.63.134-2.569,2.066-2.987a4.784,4.784,0,0,0,3.612-4.139c.175-1.026.581-1.338,1.609-1.282,1.756.094,3.521.026,5.282.026" transform="translate(-65.578 -46.002)" fill="#fbd670"/>
    <path id="Path_4110" data-name="Path 4110" d="M299.279,150.03c0,8.157-.032,16.314.032,24.471.011,1.341-.368,1.691-1.678,1.649-3.049-.1-6.1-.037-9.155-.03-4.4.01-6.609,2.208-6.637,6.567a17.013,17.013,0,0,1-.275,4.2,8.652,8.652,0,0,1-9,6.6,8.495,8.495,0,0,1-8.021-7.309,41.836,41.836,0,0,1-.2-4.211,5.7,5.7,0,0,0-5.936-5.84c-1.408-.026-2.822-.08-4.224.017-1.151.079-1.528-.28-1.5-1.456.077-2.991.028-5.985.025-8.978,0-5.036-2.091-7.08-7.2-7.1a16.9,16.9,0,0,1-3.331-.176,8.693,8.693,0,0,1,1.636-17.194,8.426,8.426,0,0,0,.879-.012,3.481,3.481,0,0,1,3.879,1.976,8.412,8.412,0,0,0,11.911,2.291,1.448,1.448,0,0,1,1.944-.015,8.577,8.577,0,0,0,12.82-3.747c.385-.839.692-1.02,1.632-.828,5.808,1.186,10.553-2.592,10.733-8.509.075-2.463.052-4.93,0-7.393-.019-.966.247-1.333,1.278-1.311,2.992.064,5.988.089,8.978-.008,1.251-.041,1.426.456,1.422,1.526-.034,8.274-.019,16.549-.019,24.823" transform="translate(-124.768 -65.574)" fill="#fbd670"/>
    <path id="Path_4111" data-name="Path 4111" d="M12.363,149.888c0-8.157.033-16.315-.032-24.471-.011-1.388.363-1.8,1.751-1.741,2.813.109,5.634.087,8.449.007,1.142-.032,1.541.278,1.5,1.454-.084,2.286-.051,4.577-.018,6.865.088,6.267,4.755,10.113,10.877,8.862.985-.2,1.142.126,1.47.835A8.618,8.618,0,0,0,49.325,145.4a1.226,1.226,0,0,1,1.646-.035c4.727,3.043,10.05,1.719,12.741-3.166a1.51,1.51,0,0,1,1.6-.986c1.573.1,3.159-.142,4.718.33a8.689,8.689,0,0,1-2.112,17.043c-1.113.041-2.233-.028-3.344.039a5.71,5.71,0,0,0-5.634,5.8c-.067,3.4-.06,6.808,0,10.21.02,1.118-.248,1.582-1.455,1.5a45.59,45.59,0,0,0-4.575-.009,5.641,5.641,0,0,0-5.6,5.434c-.089,1.462,0,2.943-.189,4.389a8.548,8.548,0,0,1-9.247,7.52,8.7,8.7,0,0,1-8.071-8.46c-.036-1.055.012-2.113-.021-3.169a5.692,5.692,0,0,0-5.7-5.711c-3.286-.06-6.578-.124-9.857.025-1.645.075-1.907-.5-1.895-1.976.069-8.1.033-16.2.033-24.3" transform="translate(-6.537 -65.57)" fill="#fbd670"/>
    <path id="Path_4112" data-name="Path 4112" d="M278.207,74.208c4.108,0,8.217.046,12.324-.029a1.814,1.814,0,0,1,2.017,1.4A31.4,31.4,0,0,1,294.887,86.7c.081,6.337.044,12.676.03,19.014,0,2.146-1.152,3.408-2.962,3.382-1.721-.024-2.808-1.248-2.871-3.313-.043-1.407-.054-2.819.006-4.225.039-.934-.323-1.168-1.222-1.2-4.575-.184-4.574-.21-4.574,4.318,0,2.289.02,4.578-.006,6.866-.023,2.075-1.253,3.462-2.974,3.424-1.674-.036-2.838-1.334-2.865-3.36-.044-3.285-.053-6.574.009-9.858.021-1.081-.315-1.38-1.392-1.4-4.4-.058-4.4-.1-4.4,4.319,0,2.289.021,4.578-.007,6.867-.024,2.075-1.253,3.463-2.973,3.427-1.673-.035-2.842-1.339-2.872-3.355-.044-2.933.021-5.869-.033-8.8a1.831,1.831,0,0,1,.964-1.686,11.77,11.77,0,0,0,4.843-8.059c.152-.944.015-1.48-1.1-1.348a9.576,9.576,0,0,1-1.583.006c-1.764-.09-3.267-.249-3.694,2.312-.318,1.9-2.186,2.949-4.144,3.37-.523.113-1.068.2-1.036-.677.185-4.918-.387-9.857.369-14.759a13.273,13.273,0,0,1,.707-2.532c1.733-4.705,2.483-5.222,7.42-5.222h9.684" transform="translate(-137.846 -39.329)" fill="#efcfb3"/>
    <path id="Path_4113" data-name="Path 4113" d="M66.319,74.2c4.108,0,8.216.056,12.322-.034a2.716,2.716,0,0,1,2.579,1.363A16.666,16.666,0,0,1,84.31,84.9c.032,3.754-.042,7.511.051,11.264.034,1.374-.5,1.453-1.551,1.114a5.559,5.559,0,0,1-4.1-4.388c-.188-.994-.546-1.271-1.464-1.19-.7.061-1.408,0-2.111.014-2.677.057-2.772-.636-2.065,2.68a10.528,10.528,0,0,0,4.389,6.573,2.394,2.394,0,0,1,1.126,2.321c-.072,2.7,0,5.4-.031,8.1-.023,2.235-1.23,3.625-3.017,3.562-1.723-.06-2.828-1.416-2.836-3.556-.016-4.165-.046-8.332.022-12.5.018-1.15-.3-1.466-1.455-1.463-4.344.01-4.344-.034-4.344,4.375,0,3.168.018,6.336-.007,9.5-.018,2.266-1.164,3.649-2.943,3.641s-2.9-1.409-2.906-3.665c-.011-4.165-.043-8.332.023-12.5.018-1.1-.31-1.353-1.38-1.357-4.427-.016-4.424-.055-4.428,4.295,0,1.525.062,3.056-.052,4.573a2.793,2.793,0,0,1-3,2.781,2.754,2.754,0,0,1-2.758-2.847c.1-7.68-.439-15.371.318-23.038a30.031,30.031,0,0,1,2.15-7.942,1.518,1.518,0,0,1,1.7-1.074c4.224.048,8.449.021,12.674.021" transform="translate(-26.181 -39.323)" fill="#efcfb3"/>
    <path id="Path_4114" data-name="Path 4114" d="M172.717,263.592c-4.166,0-8.332-.035-12.5.026a2.355,2.355,0,0,1-2.17-1.108,17.17,17.17,0,0,1-3.319-10.186c-.036-3.579.032-7.158-.035-10.736-.023-1.2.42-1.432,1.451-1.12a5.666,5.666,0,0,1,4.247,4.469c.2.964.564,1.232,1.483,1.163a19.14,19.14,0,0,1,3.165,0c1.19.11,1.364-.391,1.219-1.43a11.291,11.291,0,0,0-4.719-7.915,2.116,2.116,0,0,1-1-2.016c.054-2.756.012-5.514.022-8.272.008-2.25,1.144-3.646,2.922-3.628s2.863,1.36,2.874,3.677c.02,4.048.047,8.1-.019,12.144-.02,1.227.187,1.734,1.6,1.71,4.248-.072,4.249,0,4.249-4.276,0-3.285-.015-6.571.006-9.856.012-2,1.128-3.324,2.8-3.393,1.744-.072,2.982,1.246,3,3.37.042,4.224.055,8.449-.012,12.672-.018,1.163.322,1.472,1.475,1.472,4.357,0,4.357.043,4.357-4.335,0-1.349-.021-2.7.005-4.048.039-2.044,1.128-3.259,2.886-3.27s2.9,1.175,2.928,3.238c.055,3.636.043,7.275.012,10.912-.042,4.918.352,9.87-.916,14.705-.429,1.637-1.05,3.222-1.547,4.842a1.554,1.554,0,0,1-1.8,1.215c-4.223-.066-8.448-.028-12.673-.028" transform="translate(-82.019 -118.149)" fill="#efcfb3"/>
    <path id="Path_4115" data-name="Path 4115" d="M66.978,35.689c-4.575,0-9.15.049-13.724-.021-2.813-.043-4.411-2.248-3.447-4.532A1.89,1.89,0,0,1,51.8,29.8c3.577.06,7.157-.034,10.732.053,1.261.031,1.544-.37,1.536-1.574-.028-4.247.019-4.247-4.143-4.247-2.053,0-4.108-.051-6.158.02-1.091.038-1.408-.347-1.385-1.414.063-2.931.055-5.865,0-8.8-.018-1.012.2-1.46,1.343-1.455q13.285.061,26.569.01c.844,0,1.277.149,1.259,1.144q-.084,4.661,0,9.324c.016.964-.364,1.188-1.237,1.178-3.05-.035-6.1.024-9.149-.033-1-.019-1.266.3-1.289,1.29-.1,4.521-.134,4.521,4.347,4.521,2.4,0,4.813.083,7.212-.03,1.58-.074,2.626.341,2.916,2a3.149,3.149,0,0,1-2.272,3.662A8.286,8.286,0,0,1,80,35.681c-4.34.019-8.681.009-13.021.008" transform="translate(-26.258 -6.57)" fill="#fe816e"/>
    <path id="Path_4116" data-name="Path 4116" d="M277.541,35.7c-4.517,0-9.034.027-13.551-.01-2.67-.022-4.268-1.626-3.863-3.839.228-1.247.8-2.083,2.342-2.043,3.576.092,7.156-.008,10.734.053,1.04.017,1.394-.207,1.4-1.337.029-4.478.075-4.477-4.422-4.477-1.994,0-3.99-.046-5.983.018-1.013.032-1.3-.335-1.277-1.317q.083-4.574,0-9.149c-.016-.941.319-1.19,1.215-1.188q13.374.037,26.749,0c.926,0,1.215.327,1.2,1.231-.041,3.05-.055,6.1.006,9.149.021,1.05-.4,1.284-1.345,1.271-2.933-.042-5.866.022-8.8-.034-1.063-.021-1.54.166-1.547,1.41-.025,4.4-.078,4.4,4.312,4.4,2.4,0,4.816.107,7.213-.037,1.705-.1,2.7.453,2.986,2.142A3.181,3.181,0,0,1,292.48,35.5a9.374,9.374,0,0,1-2.092.188c-4.282.016-8.564.008-12.846.008" transform="translate(-137.885 -6.578)" fill="#b3dc7e"/>
    <path id="Path_4117" data-name="Path 4117" d="M172.455,321.84c4.458,0,8.916-.027,13.374.011,2.666.023,4.217,1.646,3.79,3.875a2.078,2.078,0,0,1-2.358,2c-3.576-.1-7.157,0-10.734-.054-1.032-.016-1.4.2-1.407,1.335-.029,4.488-.076,4.488,4.43,4.488,1.994,0,3.99.027,5.983-.013.83-.017,1.293.1,1.275,1.12q-.086,4.75,0,9.5c.015.932-.406,1.026-1.164,1.024q-13.375-.027-26.749.009c-.968,0-1.162-.35-1.15-1.221.042-3.05.053-6.1,0-9.15-.019-1,.276-1.315,1.286-1.294,2.991.061,5.984-.016,8.974.042,1.035.02,1.413-.22,1.426-1.352.052-4.47.1-4.469-4.408-4.469-2.4,0-4.815-.1-7.213.033-1.7.091-2.7-.436-2.919-2.186a3.108,3.108,0,0,1,2.282-3.488,8.474,8.474,0,0,1,2.089-.209c4.4-.017,8.8-.009,13.2-.008" transform="translate(-82.105 -170.632)" fill="#e5e8ec"/>
  </g>
</svg>
