<?xml version="1.0" encoding="UTF-8"?><svg id="Capa_1" xmlns="http://www.w3.org/2000/svg" viewBox="0 0 835.57 359.4"><defs><style>.cls-1{fill:#aa0414;}.cls-2{fill:#0e0e0e;}</style></defs><path class="cls-1" d="M24.6,169.72c2.84,5.27,5.51,10.65,8.55,15.81,41.86,71.09,103.29,115.22,183.81,132.72,23.66,5.14,47.72,6.56,71.9,4.83,108.08-7.73,207.89-78.52,242.52-192.29,1.12-3.69,2.16-7.43,3.66-10.98,8.91-21.19,25.69-32.34,47.62-36.51,13.57-2.58,27.09-2.39,40.06,3.01,13.86,5.77,23.67,15.46,27.4,30.37,3.77,15.05-1.77,29.86-14.99,37.97-15.26,9.36-31.97,11.43-49.22,6.79-4.04-1.08-7.94-3.66-11.21-6.39-6.25-5.21-7.67-15.19-3.61-22.97,12.66,8.79,26.7,7.02,40.74,5.28,.39-.05,.77-.2,1.15-.3,4.87-1.31,9.43-3.28,10.82-8.63,1.43-5.49-1.17-9.96-5.11-13.49-9.82-8.8-21.15-9.85-33.05-5.38-16.75,6.29-27,24.6-24.06,42.42,.54,3.31,1.23,6.65,2.35,9.8,7.16,19.98,25.88,28.43,45.88,20.41,4.69-1.88,8.74-5.32,13.14-7.94,.87-.52,2.28-1.06,3.03-.72,7.72,3.59,15.36,7.35,23.03,11.07-17.07,33.68-79.57,38.68-105.7,3.16-50.96,88.93-125.87,142.8-228.88,153.36-68.72,7.04-132.03-10.37-189.15-49.19-45.41-30.86-78.8-71.88-100.69-122.23Z"/><path class="cls-2" d="M412.04,122.7c-2.89-7.2-2.61-13.98,.26-20.57,4.49-10.3,13.08-15.17,23.74-16.5,25.66-3.19,50.08,11.56,59.68,37.13,9.57,25.5,7.07,50.06-11.1,71.17-20.2,23.47-54.01,24.88-77.13,4.21-.51-.46-1.04-.9-2.03-1.75v12.8h-30.33c0-1.39,0-2.65,0-3.91,0-45.34,.27-90.69-.14-136.02-.15-16.71,11.21-24.67,22.53-27.05,2.4-.5,4.88-.63,7.77-.99,0,1.53,0,2.69,0,3.84,0,31.15,0,62.31,0,93.46,0,8.08,.96,16.02,3.53,23.72,5.19,15.57,16.27,23.67,30.93,22.64,15.67-1.1,27.08-11.36,29.95-27.1,2.01-11.05,.61-21.59-5.79-31.04-7.21-10.65-17.67-14.57-30.14-13.6-8.17,.63-15.89,2.57-21.74,9.57Z"/><path class="cls-2" d="M171.93,87.9c-1.83-2.69-3.42-5.32-5.31-7.72-8.45-10.72-21.4-15.42-33.21-11.9-2.69,.8-5.38,2.16-7.62,3.85-5.45,4.12-6.22,10.17-1.68,15.3,3.99,4.52,8.43,8.68,12.97,12.65,8.51,7.44,17.44,14.42,25.82,22,5.28,4.77,10.37,9.9,14.71,15.52,21.56,27.91,6.9,67.54-27.66,74.63-26.66,5.46-48.31-4.14-66.07-23.69-3.7-4.07-6.49-8.98-9.55-13.59-.42-.63-.36-2.33,.11-2.69,7.83-5.9,15.76-11.67,23.82-17.57,4.23,7.91,9.72,14.48,16.59,19.87,5.54,4.35,11.53,7.69,18.72,8.41,5.18,.52,10.12-.22,14.65-2.81,6.43-3.66,9.27-10.36,6.6-17.25-1.54-3.97-3.78-8.06-6.79-10.99-7.58-7.4-15.68-14.28-23.74-21.17-9.07-7.74-18.22-15.36-25.29-25.09-11.78-16.24-12.33-34.72-1.4-49.46,7.13-9.62,16.85-15.34,28.47-17.49,12.89-2.38,25.5-.82,37.5,4.63,6.26,2.84,11.52,7,15.38,12.76,7.58,11.34,4.76,24.33-7.02,31.79Z"/><path class="cls-2" d="M671.21,88.75h30.02v13.24c1.11-1.18,1.75-1.82,2.35-2.51,13.77-15.61,41.82-18.57,58.1-5.87,10.93,8.53,16.27,20.13,16.38,33.88,.2,25.1-.03,50.2,.13,75.3,.03,5.32,.53,10.72,1.59,15.93,1.54,7.65,4.96,9.43,12.66,8.26,4.37-.66,8.83-.78,13.26-.83,1.56-.02,3.13,.91,5.28,1.6-1.56,1.62-2.62,2.89-3.85,3.96-12.48,10.85-32.71,11.84-46.26,2.4-9.68-6.74-12.83-16.52-12.96-27.63-.26-22.72-.34-45.44-.56-68.16-.02-2.56-.17-5.17-.69-7.68-2.5-12.23-12.46-18.91-24.66-16.51-5.87,1.16-11.01,3.9-15.19,8.25-3.3,3.43-5.01,7.43-5.03,12.31-.09,23.81-.31,47.62-.48,71.43,0,1.09,0,2.18,0,3.51h-30.08V88.75Z"/><path class="cls-2" d="M334.88,122.98c-5.79-9.7-15.69-14.65-25.07-12.5-1.95,.45-3.96,1.44-5.49,2.72-3.03,2.54-3.17,6.73-.3,9.45,1.91,1.81,4.2,3.34,6.55,4.56,5.98,3.1,12.32,5.56,18.09,9,5.83,3.47,11.79,7.17,16.59,11.88,15.96,15.68,13.58,41.8-4.53,54.92-21.45,15.54-56.74,9.73-72.07-11.87-.11-.15-.13-.36-.29-.79,6.18-6.65,12.45-13.39,18.68-20.09,2.64,2.33,5.01,4.76,7.71,6.75,7.02,5.17,14.72,8.31,23.64,6.22,8.81-2.07,11.12-9.68,4.61-15.94-3.08-2.96-6.99-5.14-10.72-7.35-7.32-4.35-14.99-8.14-22.12-12.77-7.64-4.95-13.63-11.56-16.23-20.6-3.97-13.78,.98-28.26,13.06-36.41,14.55-9.82,30.26-10.65,46.16-3.73,10.47,4.56,15.28,14.52,12.6,24.15-1.61,5.79-5.28,9.85-10.86,12.39Z"/><path class="cls-2" d="M243.48,209.39h-29.8c-.05-1.22-.14-2.28-.14-3.33,0-30.65,.07-61.29-.03-91.94-.06-16.92,10.24-26.93,29.98-26.04v121.31Z"/><path class="cls-1" d="M646.21,16.74c2.46,20.67-16.95,47.59-42.12,49.71-.54-9.8,2.18-18.62,7.27-26.8,7.97-12.81,23.61-23.09,34.85-22.91Z"/><path class="cls-2" d="M215.95,80.22c-1.84-7.51-3.78-15.69-2.34-24.24,1.33-7.89,6.9-13.03,14.47-13.24,7.42-.2,14.27,5.22,15.68,12.41,1.49,7.58-2.27,14.67-9.5,17.53-2.75,1.09-5.75,1.57-8.48,2.7-3.29,1.37-6.41,3.13-9.83,4.84Z"/></svg>