<svg id="seleccionar" xmlns="http://www.w3.org/2000/svg" width="167.866" height="167.866" viewBox="0 0 167.866 167.866">
  <path id="Trazado_2110" data-name="Trazado 2110" d="M15.83,71.7V36H10.415V71.7a8.123,8.123,0,1,0,5.415,0ZM13.123,82.028A2.708,2.708,0,1,1,15.83,79.32,2.709,2.709,0,0,1,13.123,82.028Z" transform="translate(5.83 58.763)" fill="#090"/>
  <path id="Trazado_2111" data-name="Trazado 2111" d="M19.123,36a8.1,8.1,0,0,0-2.708,15.747v35.7H21.83v-35.7A8.1,8.1,0,0,0,19.123,36Zm0,10.83a2.708,2.708,0,1,1,2.708-2.708A2.709,2.709,0,0,1,19.123,46.83Z" transform="translate(16.075 58.763)" fill="#090"/>
  <path id="Trazado_2112" data-name="Trazado 2112" d="M59.83,71.7V36H54.415V71.7a8.123,8.123,0,1,0,5.415,0ZM57.123,82.028A2.708,2.708,0,1,1,59.83,79.32,2.709,2.709,0,0,1,57.123,82.028Z" transform="translate(80.961 58.763)" fill="#090"/>
  <path id="Trazado_2113" data-name="Trazado 2113" d="M63.123,36a8.1,8.1,0,0,0-2.708,15.747v35.7H65.83v-35.7A8.1,8.1,0,0,0,63.123,36Zm0,10.83a2.708,2.708,0,1,1,2.708-2.708A2.709,2.709,0,0,1,63.123,46.83Z" transform="translate(91.206 58.763)" fill="#090"/>
  <path id="Trazado_2114" data-name="Trazado 2114" d="M117.423,87.641a8.079,8.079,0,0,0-3.022.6,8.051,8.051,0,0,0-13.223-3.9,7.873,7.873,0,0,0-8.123-1.614v-23.3a29.882,29.882,0,0,0,21.308-24.257l11.447,6.3a26.579,26.579,0,1,0,5.5-3.157l-16.681-9.176a29.742,29.742,0,0,0-59.4,0L38.553,38.31a27.38,27.38,0,1,0,5.5,3.154l11.45-6.3A29.866,29.866,0,0,0,76.813,59.428v49.908a8.121,8.121,0,0,1-.828,3.571l-2.272-11.355A17.5,17.5,0,0,0,56.6,87.524a6.862,6.862,0,0,0-5.71,10.67l2.786,4.18a12.079,12.079,0,0,1,1.928,5.182l1.874,14.981a18.391,18.391,0,0,0,2.266,6.9l8.943,18.395v4.792H63.273v16.245h59.565V152.621h-5.415v-4.513l4.332-5.775a19.055,19.055,0,0,0,3.791-11.372v-35.2A8.132,8.132,0,0,0,117.423,87.641Zm24.368-2.708a21.521,21.521,0,0,1-12.974-4.356,16.238,16.238,0,0,1,25.949,0A21.521,21.521,0,0,1,141.791,84.933Zm-8.123-24.368a8.123,8.123,0,1,1,8.123,8.123A8.132,8.132,0,0,1,133.668,60.565Zm8.123-18.953a21.636,21.636,0,0,1,16.873,35.209,21.65,21.65,0,0,0-7.936-6.168,13.538,13.538,0,1,0-17.875,0,21.679,21.679,0,0,0-7.936,6.168,21.636,21.636,0,0,1,16.873-35.209ZM28.075,84.933A21.521,21.521,0,0,1,15.1,80.577a16.238,16.238,0,0,1,25.949,0A21.521,21.521,0,0,1,28.075,84.933ZM19.953,60.565a8.123,8.123,0,1,1,8.123,8.123A8.132,8.132,0,0,1,19.953,60.565Zm29.783,2.708a21.535,21.535,0,0,1-4.787,13.548,21.65,21.65,0,0,0-7.936-6.168,13.538,13.538,0,1,0-17.875,0A21.679,21.679,0,0,0,11.2,76.821,21.652,21.652,0,1,1,49.735,63.273Zm10.83-32.49A24.368,24.368,0,1,1,104.313,45.49,21.563,21.563,0,0,0,93.906,35.426a13.538,13.538,0,1,0-17.945,0A21.563,21.563,0,0,0,65.55,45.493a24.3,24.3,0,0,1-4.985-14.71Zm32.49-5.415a8.123,8.123,0,1,1-8.123-8.123A8.132,8.132,0,0,1,93.056,25.368ZM69.668,49.743a16.17,16.17,0,0,1,30.53-.005,24.155,24.155,0,0,1-8.117,4.34,8.051,8.051,0,0,0-14.293,0A24.177,24.177,0,0,1,69.668,49.743Zm47.755,113.708H68.688v-5.415h48.735Zm2.708-32.49a13.613,13.613,0,0,1-2.708,8.123l-5.415,7.221v6.317H74.1v-6.038l-9.574-19.676a13.37,13.37,0,0,1-1.679-5.033l-1.874-14.983a17.489,17.489,0,0,0-2.794-7.513l-2.789-4.183a1.449,1.449,0,0,1,1.2-2.253,12.072,12.072,0,0,1,11.8,9.674l3.482,17.4h6.6L80.8,115.39a13.611,13.611,0,0,0,1.43-6.051V57.858a2.708,2.708,0,0,1,5.415,0v43.32h5.415V90.348a2.708,2.708,0,1,1,5.415,0v10.83h5.415V90.348a2.708,2.708,0,1,1,5.415,0v10.83h5.415V95.763a2.708,2.708,0,0,1,5.415,0Z" transform="translate(-1 -1)" fill="#090"/>
</svg>
